<svg width="34" height="34" viewBox="0 0 34 34" fill="none" xmlns="http://www.w3.org/2000/svg">
<path d="M22.088 20.5957C22.3141 20.8204 22.4413 21.1257 22.4421 21.4445C22.4427 21.763 22.3165 22.0689 22.0915 22.2944C21.8662 22.52 21.5609 22.6469 21.2421 22.6469C20.9234 22.6469 20.6177 22.52 20.3927 22.2944C20.1674 22.0689 20.0413 21.763 20.0421 21.4445C20.0426 21.1258 20.1701 20.8204 20.3959 20.5957C20.6209 20.3723 20.9249 20.2469 21.2421 20.2469C21.559 20.2469 21.8633 20.3723 22.088 20.5957H22.088ZM13.6037 13.8036L13.6039 13.8039C13.8297 13.5791 13.9572 13.2738 13.9578 12.955C13.9586 12.6365 13.8324 12.3306 13.6071 12.1051C13.3822 11.8795 13.0765 11.7526 12.7578 11.7526C12.439 11.7526 12.1336 11.8795 11.9084 12.1051C11.6834 12.3306 11.5572 12.6365 11.5577 12.955C11.5585 13.2738 11.6858 13.5791 11.9118 13.8039C12.1366 14.0272 12.4409 14.1526 12.7577 14.1526C13.0749 14.1526 13.3789 14.0272 13.6039 13.8039L13.6037 13.8036ZM32.12 18.8557C32.8668 19.8644 33.162 21.1372 32.9359 22.3718C32.3822 23.5241 31.3735 24.3938 30.152 24.7718C29.612 24.9721 29.1151 25.2735 28.6879 25.6597C28.4546 26.1914 28.3164 26.7601 28.2799 27.3397C28.2973 28.6142 27.7793 29.8375 26.852 30.7118C25.7474 31.3097 24.4456 31.4267 23.252 31.0356C22.6796 30.8934 22.0871 30.8489 21.4999 30.9038C21.0427 31.1993 20.6372 31.5684 20.2999 31.9956C19.5419 33.1099 18.3382 33.8409 16.9999 33.9998C15.7107 33.8351 14.549 33.1389 13.7958 32.0798C13.4406 31.6472 13.0144 31.2781 12.5358 30.9877C11.9486 30.9269 11.3553 30.9716 10.784 31.1198C9.59044 31.5108 8.28833 31.3938 7.18399 30.7957C6.23071 29.9166 5.69791 28.6723 5.71985 27.3757C5.68342 26.7963 5.54521 26.2276 5.31191 25.6957C4.87048 25.3043 4.35671 25.0027 3.79984 24.8077C2.57844 24.4298 1.56969 23.5603 1.0157 22.4077C0.789625 21.1734 1.08507 19.9003 1.83184 18.8919C2.19559 18.3832 2.45648 17.8084 2.59977 17.1998C2.48137 16.6105 2.25343 16.0488 1.92771 15.5439C1.18118 14.5352 0.885769 13.2624 1.11185 12.0278C1.63578 10.8816 2.60753 10.0009 3.79978 9.59193C4.33978 9.39157 4.83665 9.09023 5.26392 8.704C5.49722 8.17203 5.63517 7.60336 5.67187 7.024C5.66678 5.74205 6.20249 4.51764 7.14773 3.65193C8.25235 3.05407 9.55418 2.93673 10.7477 3.32782C11.3193 3.47621 11.9126 3.52094 12.4998 3.45987C12.9785 3.16951 13.4043 2.80041 13.7598 2.3678C14.5117 1.28191 15.6895 0.566432 16.9998 0.399872C18.289 0.564601 19.4507 1.26079 20.2039 2.31987C20.5412 2.74737 20.9464 3.11619 21.4039 3.41194C21.9911 3.47274 22.5844 3.42801 23.1557 3.27989C24.3493 2.88882 25.6514 3.00587 26.7557 3.604C27.7313 4.47211 28.2865 5.71792 28.2799 7.024C28.3163 7.60337 28.4545 8.17202 28.6878 8.704C29.1293 9.09533 29.643 9.39691 30.1999 9.59193C31.4213 9.96987 32.43 10.8393 32.984 11.9919C33.2101 13.2262 32.9147 14.4993 32.1679 15.5078C31.8041 16.0165 31.5432 16.5913 31.4 17.1999C31.5331 17.7924 31.7774 18.3543 32.12 18.8557L32.12 18.8557ZM10.208 15.5077C10.8838 16.1811 11.7993 16.5588 12.7534 16.5577C13.7076 16.5566 14.622 16.1768 15.2962 15.5018C15.9704 14.8268 16.3491 13.9118 16.3491 12.9577C16.3491 12.0036 15.9704 11.0886 15.2962 10.4136C14.622 9.73855 13.7076 9.35872 12.7534 9.35769C11.7993 9.35662 10.8838 9.7343 10.208 10.4077C9.53033 11.0832 9.14919 12.0008 9.14919 12.9577C9.14919 13.9147 9.53035 14.8322 10.208 15.5077V15.5077ZM23.792 12.1119C24.0963 11.8073 24.2152 11.3637 24.1038 10.948C23.9924 10.532 23.6677 10.2074 23.2517 10.0959C22.836 9.9845 22.3925 10.1034 22.0879 10.4077L10.2079 22.2877C9.98072 22.513 9.85295 22.8197 9.85295 23.1398C9.85295 23.4599 9.98072 23.7666 10.2079 23.9919C10.4331 24.219 10.7398 24.3468 11.0599 24.3468C11.38 24.3468 11.6867 24.219 11.912 23.9919L23.792 12.1119ZM23.792 18.8919C23.1162 18.2185 22.2007 17.8408 21.2466 17.8419C20.2925 17.843 19.378 18.2228 18.7038 18.8978C18.0296 19.5728 17.6509 20.4878 17.6509 21.4419C17.6509 22.396 18.0296 23.311 18.7038 23.986C19.378 24.661 20.2925 25.0409 21.2466 25.0419C22.2007 25.043 23.1162 24.6653 23.792 23.9919C24.4697 23.3164 24.8508 22.3987 24.8508 21.4419C24.8508 20.4848 24.4697 19.5674 23.792 18.8919Z" fill="#8295AB"/>
</svg>
